<svg width="35" height="35" viewBox="0 0 35 35" fill="none" xmlns="http://www.w3.org/2000/svg">
<path d="M16.1022 6.25C16.4751 6.25 16.8328 6.39816 17.0966 6.66188C17.3603 6.9256 17.5084 7.28329 17.5084 7.65625V17.5H24.5397C24.9126 17.5 25.2703 17.6482 25.5341 17.9119C25.7978 18.1756 25.9459 18.5333 25.9459 18.9062C25.9459 19.2792 25.7978 19.6369 25.5341 19.9006C25.2703 20.1643 24.9126 20.3125 24.5397 20.3125H16.1022C15.7292 20.3125 15.3715 20.1643 15.1078 19.9006C14.8441 19.6369 14.6959 19.2792 14.6959 18.9062V7.65625C14.6959 7.28329 14.8441 6.9256 15.1078 6.66188C15.3715 6.39816 15.7292 6.25 16.1022 6.25ZM7.65625 0.625C5.79145 0.625 4.00302 1.36579 2.68441 2.68441C1.36579 4.00302 0.625 5.79145 0.625 7.65625V27.3438C0.625 29.2086 1.36579 30.997 2.68441 32.3156C4.00302 33.6342 5.79145 34.375 7.65625 34.375H27.3438C29.2086 34.375 30.997 33.6342 32.3156 32.3156C33.6342 30.997 34.375 29.2086 34.375 27.3438V7.65625C34.375 5.79145 33.6342 4.00302 32.3156 2.68441C30.997 1.36579 29.2086 0.625 27.3438 0.625H7.65625ZM3.4375 7.65625C3.4375 6.53737 3.88197 5.46431 4.67314 4.67314C5.46431 3.88197 6.53737 3.4375 7.65625 3.4375H27.3438C28.4626 3.4375 29.5357 3.88197 30.3269 4.67314C31.118 5.46431 31.5625 6.53737 31.5625 7.65625V27.3438C31.5625 28.4626 31.118 29.5357 30.3269 30.3269C29.5357 31.118 28.4626 31.5625 27.3438 31.5625H7.65625C6.53737 31.5625 5.46431 31.118 4.67314 30.3269C3.88197 29.5357 3.4375 28.4626 3.4375 27.3438V7.65625Z" fill="#424447"/>
</svg>
